<?xml version="1.0" standalone="no"?>
<!DOCTYPE svg PUBLIC "-//W3C//DTD SVG 20010904//EN"
 "http://www.w3.org/TR/2001/REC-SVG-20010904/DTD/svg10.dtd">
<svg version="1.0" xmlns="http://www.w3.org/2000/svg"
 width="512.000000pt" height="512.000000pt" viewBox="0 0 512.000000 512.000000"
 preserveAspectRatio="xMidYMid meet">
<metadata>
Created by potrace 1.14, written by Peter Selinger 2001-2017
</metadata>
<g transform="translate(0.000000,512.000000) scale(0.100000,-0.100000)"
fill="#000000" stroke="none">
<path d="M2385 4835 c-324 -58 -598 -299 -694 -610 -33 -105 -36 -128 -36
-275 1 -144 15 -224 61 -329 13 -29 24 -55 24 -57 0 -3 -30 21 -67 52 -38 30
-113 78 -168 104 -402 197 -882 67 -1129 -303 -69 -105 -125 -250 -141 -367
-6 -48 -7 -220 0 -250 2 -14 7 -38 11 -55 61 -314 316 -589 624 -674 118 -33
259 -45 343 -30 21 3 36 5 35 4 -2 -2 -37 -26 -79 -54 -244 -162 -385 -417
-395 -711 -7 -245 72 -457 237 -634 122 -130 262 -213 434 -257 114 -29 303
-32 409 -6 318 78 560 304 655 611 11 37 21 80 22 95 1 23 2 22 11 -9 64 -224
122 -330 248 -457 254 -256 652 -332 983 -186 312 136 527 458 530 793 1 130
-10 199 -45 305 -63 185 -195 356 -355 459 -40 26 -73 48 -73 50 0 2 20 0 45
-4 58 -9 187 -3 250 11 197 43 349 127 477 261 120 125 188 259 235 463 2 11
6 67 8 125 17 501 -381 910 -887 911 -65 0 -121 -2 -125 -4 -5 -3 -28 -8 -52
-12 -93 -14 -298 -106 -353 -158 -7 -7 -33 -28 -57 -46 l-43 -34 20 39 c76
152 98 380 53 568 -81 340 -357 602 -706 671 -60 12 -242 12 -310 0z m258
-1860 c64 -10 197 -79 249 -129 101 -97 156 -214 165 -351 10 -155 -43 -292
-157 -405 -107 -107 -237 -156 -390 -148 -195 11 -356 118 -440 293 -100 208
-62 432 100 595 127 127 283 175 473 145z"/>
</g>
</svg>
